<svg width="24" height="24" viewBox="0 0 24 24" fill="none" xmlns="http://www.w3.org/2000/svg">
<path d="M12 10C13.1045 10 14 10.8954 14 12C14 13.1046 13.1045 14 12 14C10.8954 14 9.99997 13.1046 9.99997 12C9.99997 10.8954 10.8954 10 12 10Z" stroke="white" stroke-width="1.5" stroke-linecap="round" stroke-linejoin="round"/>
<path d="M6.90133 6.7469C5.96489 6.20624 4.76746 6.52709 4.22681 7.46353L4.18507 7.53583C3.64421 8.47263 3.96518 9.67051 4.90197 10.2114L5.14477 10.3515C5.71739 10.6821 5.99997 11.3388 5.99997 12C5.99997 12.6612 5.71739 13.3179 5.14477 13.6485L4.90197 13.7886C3.96518 14.3295 3.64421 15.5274 4.18507 16.4642L4.22681 16.5365C4.76746 17.4729 5.96489 17.7938 6.90133 17.2531L7.14543 17.1122C7.718 16.7816 8.42328 16.863 8.99527 17.1946C9.56708 17.526 9.99997 18.1005 9.99997 18.7614V19.0427C9.99997 20.1237 10.8763 21 11.9572 21H12.0427C13.1237 21 14 20.1237 14 19.0427V18.7614C14 18.1005 14.4329 17.5261 15.0047 17.1946C15.5767 16.863 16.2819 16.7816 16.8545 17.1122L17.0986 17.2531C18.0351 17.7938 19.2325 17.4729 19.7732 16.5365L19.8149 16.4642C20.3558 15.5274 20.0348 14.3295 19.098 13.7886L18.8552 13.6485C18.2826 13.3179 18 12.6612 18 12C18 11.3388 18.2826 10.6821 18.8552 10.3515L19.098 10.2114C20.0348 9.6705 20.3558 8.47262 19.8149 7.53581L19.7732 7.46353C19.2325 6.52709 18.0351 6.20623 17.0986 6.74689L16.8545 6.88783C16.2819 7.2184 15.5767 7.13699 15.0047 6.80541C14.4329 6.47395 14 5.89952 14 5.23859V4.95728C14 3.8763 13.1237 3 12.0427 3L11.9572 3C10.8763 3 9.99997 3.8763 9.99997 4.95727V5.23858C9.99997 5.89952 9.56708 6.47395 8.99527 6.80542C8.42328 7.13699 7.718 7.2184 7.14543 6.88783L6.90133 6.7469Z" stroke="white" stroke-width="1.5" stroke-linecap="round" stroke-linejoin="round"/>
</svg>
